<svg xmlns="http://www.w3.org/2000/svg" xmlns:xlink="http://www.w3.org/1999/xlink" width="75ex" height="12.843ex" focusable="false" role="img" viewBox="0 -2800.6 32291.5 5529.4" style="font-size:15px;vertical-align:-6.338ex;max-width:450"><defs><path id="E1-MJMAIN-28" stroke-width="1" d="M94 250Q94 319 104 381T127 488T164 576T202 643T244 695T277 729T302 750H315H319Q333 750 333 741Q333 738 316 720T275 667T226 581T184 443T167 250T184 58T225 -81T274 -167T316 -220T333 -241Q333 -250 318 -250H315H302L274 -226Q180 -141 137 -14T94 250Z"/><path id="E1-MJMAIN-31" stroke-width="1" d="M213 578L200 573Q186 568 160 563T102 556H83V602H102Q149 604 189 617T245 641T273 663Q275 666 285 666Q294 666 302 660V361L303 61Q310 54 315 52T339 48T401 46H427V0H416Q395 3 257 3Q121 3 100 0H88V46H114Q136 46 152 46T177 47T193 50T201 52T207 57T213 61V578Z"/><path id="E1-MJMATHI-64" stroke-width="1" d="M366 683Q367 683 438 688T511 694Q523 694 523 686Q523 679 450 384T375 83T374 68Q374 26 402 26Q411 27 422 35Q443 55 463 131Q469 151 473 152Q475 153 483 153H487H491Q506 153 506 145Q506 140 503 129Q490 79 473 48T445 8T417 -8Q409 -10 393 -10Q359 -10 336 5T306 36L300 51Q299 52 296 50Q294 48 292 46Q233 -10 172 -10Q117 -10 75 30T33 157Q33 205 53 255T101 341Q148 398 195 420T280 442Q336 442 364 400Q369 394 369 396Q370 400 396 505T424 616Q424 629 417 632T378 637H357Q351 643 351 645T353 664Q358 683 366 683ZM352 326Q329 405 277 405Q242 405 210 374T160 293Q131 214 119 129Q119 126 119 118T118 106Q118 61 136 44T179 26Q233 26 290 98L298 109L352 326Z"/><path id="E1-MJMATHI-58" stroke-width="1" d="M42 0H40Q26 0 26 11Q26 15 29 27Q33 41 36 43T55 46Q141 49 190 98Q200 108 306 224T411 342Q302 620 297 625Q288 636 234 637H206Q200 643 200 645T202 664Q206 677 212 683H226Q260 681 347 681Q380 681 408 681T453 682T473 682Q490 682 490 671Q490 670 488 658Q484 643 481 640T465 637Q434 634 411 620L488 426L541 485Q646 598 646 610Q646 628 622 635Q617 635 609 637Q594 637 594 648Q594 650 596 664Q600 677 606 683H618Q619 683 643 683T697 681T738 680Q828 680 837 683H845Q852 676 852 672Q850 647 840 637H824Q790 636 763 628T722 611T698 593L687 584Q687 585 592 480L505 384Q505 383 536 304T601 142T638 56Q648 47 699 46Q734 46 734 37Q734 35 732 23Q728 7 725 4T711 1Q708 1 678 1T589 2Q528 2 496 2T461 1Q444 1 444 10Q444 11 446 25Q448 35 450 39T455 44T464 46T480 47T506 54Q523 62 523 64Q522 64 476 181L429 299Q241 95 236 84Q232 76 232 72Q232 53 261 47Q262 47 267 47T273 46Q276 46 277 46T280 45T283 42T284 35Q284 26 282 19Q279 6 276 4T261 1Q258 1 243 1T201 2T142 2Q64 2 42 0Z"/><path id="E1-MJMAIN-2212" stroke-width="1" d="M84 237T84 250T98 270H679Q694 262 694 250T679 230H98Q84 237 84 250Z"/><path id="E1-MJMAIN-63" stroke-width="1" d="M370 305T349 305T313 320T297 358Q297 381 312 396Q317 401 317 402T307 404Q281 408 258 408Q209 408 178 376Q131 329 131 219Q131 137 162 90Q203 29 272 29Q313 29 338 55T374 117Q376 125 379 127T395 129H409Q415 123 415 120Q415 116 411 104T395 71T366 33T318 2T249 -11Q163 -11 99 53T34 214Q34 318 99 383T250 448T370 421T404 357Q404 334 387 320Z"/><path id="E1-MJMAIN-6F" stroke-width="1" d="M28 214Q28 309 93 378T250 448Q340 448 405 380T471 215Q471 120 407 55T250 -10Q153 -10 91 57T28 214ZM250 30Q372 30 372 193V225V250Q372 272 371 288T364 326T348 362T317 390T268 410Q263 411 252 411Q222 411 195 399Q152 377 139 338T126 246V226Q126 130 145 91Q177 30 250 30Z"/><path id="E1-MJMAIN-74" stroke-width="1" d="M27 422Q80 426 109 478T141 600V615H181V431H316V385H181V241Q182 116 182 100T189 68Q203 29 238 29Q282 29 292 100Q293 108 293 146V181H333V146V134Q333 57 291 17Q264 -10 221 -10Q187 -10 162 2T124 33T105 68T98 100Q97 107 97 248V385H18V422H27Z"/><path id="E1-MJMATHI-3B8" stroke-width="1" d="M35 200Q35 302 74 415T180 610T319 704Q320 704 327 704T339 705Q393 701 423 656Q462 596 462 495Q462 380 417 261T302 66T168 -10H161Q125 -10 99 10T60 63T41 130T35 200ZM383 566Q383 668 330 668Q294 668 260 623T204 521T170 421T157 371Q206 370 254 370L351 371Q352 372 359 404T375 484T383 566ZM113 132Q113 26 166 26Q181 26 198 36T239 74T287 161T335 307L340 324H145Q145 321 136 286T120 208T113 132Z"/><path id="E1-MJMATHI-75" stroke-width="1" d="M21 287Q21 295 30 318T55 370T99 420T158 442Q204 442 227 417T250 358Q250 340 216 246T182 105Q182 62 196 45T238 27T291 44T328 78L339 95Q341 99 377 247Q407 367 413 387T427 416Q444 431 463 431Q480 431 488 421T496 402L420 84Q419 79 419 68Q419 43 426 35T447 26Q469 29 482 57T512 145Q514 153 532 153Q551 153 551 144Q550 139 549 130T540 98T523 55T498 17T462 -8Q454 -10 438 -10Q372 -10 347 46Q345 45 336 36T318 21T296 6T267 -6T233 -11Q189 -11 155 7Q103 38 103 113Q103 170 138 262T173 379Q173 380 173 381Q173 390 173 393T169 400T158 404H154Q131 404 112 385T82 344T65 302T57 280Q55 278 41 278H27Q21 284 21 287Z"/><path id="E1-MJMAIN-30" stroke-width="1" d="M96 585Q152 666 249 666Q297 666 345 640T423 548Q460 465 460 320Q460 165 417 83Q397 41 362 16T301 -15T250 -22Q224 -22 198 -16T137 16T82 83Q39 165 39 320Q39 494 96 585ZM321 597Q291 629 250 629Q208 629 178 597Q153 571 145 525T137 333Q137 175 145 125T181 46Q209 16 250 16Q290 16 318 46Q347 76 354 130T362 333Q362 478 354 524T321 597Z"/><path id="E1-MJMATHI-59" stroke-width="1" d="M66 637Q54 637 49 637T39 638T32 641T30 647T33 664T42 682Q44 683 56 683Q104 680 165 680Q288 680 306 683H316Q322 677 322 674T320 656Q316 643 310 637H298Q242 637 242 624Q242 619 292 477T343 333L346 336Q350 340 358 349T379 373T411 410T454 461Q546 568 561 587T577 618Q577 634 545 637Q528 637 528 647Q528 649 530 661Q533 676 535 679T549 683Q551 683 578 682T657 680Q684 680 713 681T746 682Q763 682 763 673Q763 669 760 657T755 643Q753 637 734 637Q662 632 617 587Q608 578 477 424L348 273L322 169Q295 62 295 57Q295 46 363 46Q379 46 384 45T390 35Q390 33 388 23Q384 6 382 4T366 1Q361 1 324 1T232 2Q170 2 138 2T102 1Q84 1 84 9Q84 14 87 24Q88 27 89 30T90 35T91 39T93 42T96 44T101 45T107 45T116 46T129 46Q168 47 180 50T198 63Q201 68 227 171L252 274L129 623Q128 624 127 625T125 627T122 629T118 631T113 633T105 634T96 635T83 636T66 637Z"/><path id="E1-MJMAIN-73" stroke-width="1" d="M295 316Q295 356 268 385T190 414Q154 414 128 401Q98 382 98 349Q97 344 98 336T114 312T157 287Q175 282 201 278T245 269T277 256Q294 248 310 236T342 195T359 133Q359 71 321 31T198 -10H190Q138 -10 94 26L86 19L77 10Q71 4 65 -1L54 -11H46H42Q39 -11 33 -5V74V132Q33 153 35 157T45 162H54Q66 162 70 158T75 146T82 119T101 77Q136 26 198 26Q295 26 295 104Q295 133 277 151Q257 175 194 187T111 210Q75 227 54 256T33 318Q33 357 50 384T93 424T143 442T187 447H198Q238 447 268 432L283 424L292 431Q302 440 314 448H322H326Q329 448 335 442V310L329 304H301Q295 310 295 316Z"/><path id="E1-MJMAIN-69" stroke-width="1" d="M69 609Q69 637 87 653T131 669Q154 667 171 652T188 609Q188 579 171 564T129 549Q104 549 87 564T69 609ZM247 0Q232 3 143 3Q132 3 106 3T56 1L34 0H26V46H42Q70 46 91 49Q100 53 102 60T104 102V205V293Q104 345 102 359T88 378Q74 385 41 385H30V408Q30 431 32 431L42 432Q52 433 70 434T106 436Q123 437 142 438T171 441T182 442H185V62Q190 52 197 50T232 46H255V0H247Z"/><path id="E1-MJMAIN-6E" stroke-width="1" d="M41 46H55Q94 46 102 60V68Q102 77 102 91T102 122T103 161T103 203Q103 234 103 269T102 328V351Q99 370 88 376T43 385H25V408Q25 431 27 431L37 432Q47 433 65 434T102 436Q119 437 138 438T167 441T178 442H181V402Q181 364 182 364T187 369T199 384T218 402T247 421T285 437Q305 442 336 442Q450 438 463 329Q464 322 464 190V104Q464 66 466 59T477 49Q498 46 526 46H542V0H534L510 1Q487 2 460 2T422 3Q319 3 310 0H302V46H318Q379 46 379 62Q380 64 380 200Q379 335 378 343Q372 371 358 385T334 402T308 404Q263 404 229 370Q202 343 195 315T187 232V168V108Q187 78 188 68T191 55T200 49Q221 46 249 46H265V0H257L234 1Q210 2 183 2T145 3Q42 3 33 0H25V46H41Z"/><path id="E1-MJMATHI-76" stroke-width="1" d="M173 380Q173 405 154 405Q130 405 104 376T61 287Q60 286 59 284T58 281T56 279T53 278T49 278T41 278H27Q21 284 21 287Q21 294 29 316T53 368T97 419T160 441Q202 441 225 417T249 361Q249 344 246 335Q246 329 231 291T200 202T182 113Q182 86 187 69Q200 26 250 26Q287 26 319 60T369 139T398 222T409 277Q409 300 401 317T383 343T365 361T357 383Q357 405 376 424T417 443Q436 443 451 425T467 367Q467 340 455 284T418 159T347 40T241 -11Q177 -11 139 22Q102 54 102 117Q102 148 110 181T151 298Q173 362 173 380Z"/><path id="E1-MJMAIN-29" stroke-width="1" d="M60 749L64 750Q69 750 74 750H86L114 726Q208 641 251 514T294 250Q294 182 284 119T261 12T224 -76T186 -143T145 -194T113 -227T90 -246Q87 -249 86 -250H74Q66 -250 63 -250T58 -247T55 -238Q56 -237 66 -225Q221 -64 221 250T66 725Q56 737 55 738Q55 746 60 749Z"/><path id="E1-MJSZ4-239B" stroke-width="1" d="M837 1154Q843 1148 843 1145Q843 1141 818 1106T753 1002T667 841T574 604T494 299Q417 -84 417 -609Q417 -641 416 -647T411 -654Q409 -655 366 -655Q299 -655 297 -654Q292 -652 292 -643T291 -583Q293 -400 304 -242T347 110T432 470T574 813T785 1136Q787 1139 790 1142T794 1147T796 1150T799 1152T802 1153T807 1154T813 1154H819H837Z"/><path id="E1-MJSZ4-239D" stroke-width="1" d="M843 -635Q843 -638 837 -644H820Q801 -644 800 -643Q792 -635 785 -626Q684 -503 605 -363T473 -75T385 216T330 518T302 809T291 1093Q291 1144 291 1153T296 1164Q298 1165 366 1165Q409 1165 411 1164Q415 1163 416 1157T417 1119Q417 529 517 109T833 -617Q843 -631 843 -635Z"/><path id="E1-MJSZ4-239C" stroke-width="1" d="M413 -9Q412 -9 407 -9T388 -10T354 -10Q300 -10 297 -9Q294 -8 293 -5Q291 5 291 127V300Q291 602 292 605L296 609Q298 610 366 610Q382 610 392 610T407 610T412 609Q416 609 416 592T417 473V127Q417 -9 413 -9Z"/><path id="E1-MJSZ4-239E" stroke-width="1" d="M31 1143Q31 1154 49 1154H59Q72 1154 75 1152T89 1136Q190 1013 269 873T401 585T489 294T544 -8T572 -299T583 -583Q583 -634 583 -643T577 -654Q575 -655 508 -655Q465 -655 463 -654Q459 -653 458 -647T457 -609Q457 -58 371 340T100 1037Q87 1059 61 1098T31 1143Z"/><path id="E1-MJSZ4-23A0" stroke-width="1" d="M56 -644H50Q31 -644 31 -635Q31 -632 37 -622Q69 -579 100 -527Q286 -228 371 170T457 1119Q457 1161 462 1164Q464 1165 520 1165Q575 1165 577 1164Q582 1162 582 1153T583 1093Q581 910 570 752T527 400T442 40T300 -303T89 -626Q78 -640 75 -642T61 -644H56Z"/><path id="E1-MJSZ4-239F" stroke-width="1" d="M579 -9Q578 -9 573 -9T554 -10T520 -10Q466 -10 463 -9Q460 -8 459 -5Q457 5 457 127V300Q457 602 458 605L462 609Q464 610 532 610Q548 610 558 610T573 610T578 609Q582 609 582 592T583 473V127Q583 -9 579 -9Z"/><path id="E1-MJMATHI-66" stroke-width="1" d="M118 -162Q120 -162 124 -164T135 -167T147 -168Q160 -168 171 -155T187 -126Q197 -99 221 27T267 267T289 382V385H242Q195 385 192 387Q188 390 188 397L195 425Q197 430 203 430T250 431Q298 431 298 432Q298 434 307 482T319 540Q356 705 465 705Q502 703 526 683T550 630Q550 594 529 578T487 561Q443 561 443 603Q443 622 454 636T478 657L487 662Q471 668 457 668Q445 668 434 658T419 630Q412 601 403 552T387 469T380 433Q380 431 435 431Q480 431 487 430T498 424Q499 420 496 407T491 391Q489 386 482 386T428 385H372L349 263Q301 15 282 -47Q255 -132 212 -173Q175 -205 139 -205Q107 -205 81 -186T55 -132Q55 -95 76 -78T118 -61Q162 -61 162 -103Q162 -122 151 -136T127 -157L118 -162Z"/><path id="E1-MJMAIN-3D" stroke-width="1" d="M56 347Q56 360 70 367H707Q722 359 722 347Q722 336 708 328L390 327H72Q56 332 56 347ZM56 153Q56 168 72 173H708Q722 163 722 153Q722 140 707 133H70Q56 140 56 153Z"/></defs><g fill="currentColor" stroke="currentColor" stroke-width="0"><g transform="matrix(1 0 0 -1 0 0) translate(1652,0)"><g transform="translate(0,2532)"><use x="0" y="-1156" xlink:href="#E1-MJSZ4-239B"/><g transform="translate(0,-2784.78228479984) scale(1,1.6739480929620951)"><use xlink:href="#E1-MJSZ4-239C"/></g><use x="0" y="-3921" xlink:href="#E1-MJSZ4-239D"/></g><g><g transform="translate(1042,0) translate(-11,0)"><g><g transform="translate(0,1579) translate(120,0)"><rect width="1092" height="60" x="0" y="220" stroke="none"/><use x="522" y="629" transform="scale(0.707)" xlink:href="#E1-MJMAIN-31"/><g transform="translate(60,-436)"><use x="0" y="0" transform="scale(0.707)" xlink:href="#E1-MJMATHI-64"/><use x="523" y="0" transform="scale(0.707)" xlink:href="#E1-MJMATHI-58"/></g></g></g><use x="416" y="-181" xlink:href="#E1-MJMAIN-30"/><use x="416" y="-1833" xlink:href="#E1-MJMAIN-30"/></g><g transform="translate(1042,0) translate(2322,0)"><g transform="translate(111,1579)"><use x="0" y="0" xlink:href="#E1-MJMAIN-2212"/><g><g transform="translate(778,0) translate(120,0)"><rect width="1562" height="60" x="0" y="220" stroke="none"/><g transform="translate(60,453)"><use transform="scale(0.707)" xlink:href="#E1-MJMAIN-63"/><use x="444" y="0" transform="scale(0.707)" xlink:href="#E1-MJMAIN-6F"/><use x="945" y="0" transform="scale(0.707)" xlink:href="#E1-MJMAIN-74"/><use x="1570" y="0" transform="scale(0.707)" xlink:href="#E1-MJMATHI-3B8"/></g><g transform="translate(294,-436)"><use x="0" y="0" transform="scale(0.707)" xlink:href="#E1-MJMATHI-64"/><use x="523" y="0" transform="scale(0.707)" xlink:href="#E1-MJMATHI-58"/></g></g></g></g><g><g transform="translate(0,-181) translate(120,0)"><rect width="2564" height="60" x="0" y="220" stroke="none"/><use x="1563" y="629" transform="scale(0.707)" xlink:href="#E1-MJMAIN-31"/><g transform="translate(60,-444)"><use x="0" y="0" transform="scale(0.707)" xlink:href="#E1-MJMATHI-64"/><use x="523" y="0" transform="scale(0.707)" xlink:href="#E1-MJMATHI-59"/><g transform="translate(1076,0)"><use transform="scale(0.707)" xlink:href="#E1-MJMAIN-73"/><use x="394" y="0" transform="scale(0.707)" xlink:href="#E1-MJMAIN-69"/><use x="673" y="0" transform="scale(0.707)" xlink:href="#E1-MJMAIN-6E"/></g><use x="2987" y="0" transform="scale(0.707)" xlink:href="#E1-MJMATHI-3B8"/></g></g></g><use x="1152" y="-1833" xlink:href="#E1-MJMAIN-30"/></g><g transform="translate(1042,0) translate(6127,0)"><g transform="translate(0,1579)"><use x="0" y="0" xlink:href="#E1-MJMATHI-75"/><use x="809" y="-213" transform="scale(0.707)" xlink:href="#E1-MJMAIN-30"/></g><g transform="translate(43,-181)"><use x="0" y="0" xlink:href="#E1-MJMATHI-76"/><use x="686" y="-213" transform="scale(0.707)" xlink:href="#E1-MJMAIN-30"/></g><use x="262" y="-1833" xlink:href="#E1-MJMAIN-31"/></g></g><g transform="translate(8363,2532)"><use x="0" y="-1155" xlink:href="#E1-MJSZ4-239E"/><g transform="translate(0,-2784.763023162601) scale(1,1.6755532293986921)"><use xlink:href="#E1-MJSZ4-239F"/></g><use x="0" y="-3921" xlink:href="#E1-MJSZ4-23A0"/></g><g><g transform="translate(9405,0) translate(0,2156)"><use x="0" y="-1156" xlink:href="#E1-MJSZ4-239B"/><g transform="translate(0,-2045.4333868378812) scale(1,0.463884430176565)"><use xlink:href="#E1-MJSZ4-239C"/></g><use x="0" y="-3167" xlink:href="#E1-MJSZ4-239D"/></g><g><g transform="translate(9405,0) translate(1042,0) translate(-11,0)"><use x="0" y="1356" xlink:href="#E1-MJMATHI-66"/><use x="25" y="-50" xlink:href="#E1-MJMAIN-30"/><use x="25" y="-1456" xlink:href="#E1-MJMAIN-30"/></g><g transform="translate(9405,0) translate(1042,0) translate(1540,0)"><use x="25" y="1356" xlink:href="#E1-MJMAIN-30"/><use x="0" y="-50" xlink:href="#E1-MJMATHI-66"/><use x="25" y="-1456" xlink:href="#E1-MJMAIN-30"/></g><g transform="translate(9405,0) translate(1042,0) translate(3090,0)"><use x="0" y="1356" xlink:href="#E1-MJMAIN-30"/><use x="0" y="-50" xlink:href="#E1-MJMAIN-30"/><use x="0" y="-1456" xlink:href="#E1-MJMAIN-31"/></g><g transform="translate(9405,0) translate(1042,0) translate(4591,0)"><use x="0" y="1356" xlink:href="#E1-MJMAIN-30"/><use x="0" y="-50" xlink:href="#E1-MJMAIN-30"/><use x="0" y="-1456" xlink:href="#E1-MJMAIN-30"/></g></g><g transform="translate(9405,0) translate(6301,2156)"><use x="0" y="-1155" xlink:href="#E1-MJSZ4-239E"/><g transform="translate(0,-2045.414125200642) scale(1,0.4654895666131621)"><use xlink:href="#E1-MJSZ4-239F"/></g><use x="0" y="-3167" xlink:href="#E1-MJSZ4-23A0"/></g></g><use x="16859" y="0" xlink:href="#E1-MJMAIN-3D"/><g><g transform="translate(17915,0) translate(0,2687)"><use x="0" y="-1156" xlink:href="#E1-MJSZ4-239B"/><g transform="translate(0,-3087.835993185516) scale(1,2.1699443423658202)"><use xlink:href="#E1-MJSZ4-239C"/></g><use x="0" y="-4230" xlink:href="#E1-MJSZ4-239D"/></g><g><g transform="translate(17915,0) translate(1042,0) translate(-11,0)"><g><g transform="translate(0,1598) translate(120,0)"><rect width="1092" height="60" x="0" y="220" stroke="none"/><use x="497" y="834" transform="scale(0.707)" xlink:href="#E1-MJMATHI-66"/><g transform="translate(60,-436)"><use x="0" y="0" transform="scale(0.707)" xlink:href="#E1-MJMATHI-64"/><use x="523" y="0" transform="scale(0.707)" xlink:href="#E1-MJMATHI-58"/></g></g></g><use x="416" y="-336" xlink:href="#E1-MJMAIN-30"/><use x="416" y="-1988" xlink:href="#E1-MJMAIN-30"/></g><g transform="translate(17915,0) translate(1042,0) translate(2322,0)"><g transform="translate(0,1598)"><use x="0" y="0" xlink:href="#E1-MJMAIN-2212"/><g><g transform="translate(778,0) translate(120,0)"><rect width="2118" height="60" x="0" y="220" stroke="none"/><g transform="translate(60,590)"><use x="0" y="0" transform="scale(0.707)" xlink:href="#E1-MJMATHI-66"/><g transform="translate(555,0)"><use transform="scale(0.707)" xlink:href="#E1-MJMAIN-63"/><use x="444" y="0" transform="scale(0.707)" xlink:href="#E1-MJMAIN-6F"/><use x="945" y="0" transform="scale(0.707)" xlink:href="#E1-MJMAIN-74"/></g><use x="2356" y="0" transform="scale(0.707)" xlink:href="#E1-MJMATHI-3B8"/></g><g transform="translate(572,-436)"><use x="0" y="0" transform="scale(0.707)" xlink:href="#E1-MJMATHI-64"/><use x="523" y="0" transform="scale(0.707)" xlink:href="#E1-MJMATHI-58"/></g></g></g></g><g><g transform="translate(165,-336) translate(120,0)"><rect width="2564" height="60" x="0" y="220" stroke="none"/><use x="1538" y="834" transform="scale(0.707)" xlink:href="#E1-MJMATHI-66"/><g transform="translate(60,-444)"><use x="0" y="0" transform="scale(0.707)" xlink:href="#E1-MJMATHI-64"/><use x="523" y="0" transform="scale(0.707)" xlink:href="#E1-MJMATHI-59"/><g transform="translate(1076,0)"><use transform="scale(0.707)" xlink:href="#E1-MJMAIN-73"/><use x="394" y="0" transform="scale(0.707)" xlink:href="#E1-MJMAIN-69"/><use x="673" y="0" transform="scale(0.707)" xlink:href="#E1-MJMAIN-6E"/></g><use x="2987" y="0" transform="scale(0.707)" xlink:href="#E1-MJMATHI-3B8"/></g></g></g><use x="1318" y="-1988" xlink:href="#E1-MJMAIN-30"/></g><g transform="translate(17915,0) translate(1042,0) translate(6459,0)"><g transform="translate(0,1598)"><use x="0" y="0" xlink:href="#E1-MJMATHI-75"/><use x="809" y="-213" transform="scale(0.707)" xlink:href="#E1-MJMAIN-30"/></g><g transform="translate(43,-336)"><use x="0" y="0" xlink:href="#E1-MJMATHI-76"/><use x="686" y="-213" transform="scale(0.707)" xlink:href="#E1-MJMAIN-30"/></g><use x="262" y="-1988" xlink:href="#E1-MJMAIN-31"/></g><g transform="translate(17915,0) translate(1042,0) translate(8485,0)"><use x="0" y="1598" xlink:href="#E1-MJMAIN-30"/><use x="0" y="-336" xlink:href="#E1-MJMAIN-30"/><use x="0" y="-1988" xlink:href="#E1-MJMAIN-30"/></g></g><g transform="translate(17915,0) translate(10195,2687)"><use x="0" y="-1155" xlink:href="#E1-MJSZ4-239E"/><g transform="translate(0,-3087.816731548277) scale(1,2.171549478802417)"><use xlink:href="#E1-MJSZ4-239F"/></g><use x="0" y="-4230" xlink:href="#E1-MJSZ4-23A0"/></g></g></g></g></svg>